<svg width="9" height="9" viewBox="0 0 9 9" fill="none" xmlns="http://www.w3.org/2000/svg">
<path d="M7.35984 4.23315C7.35984 5.80952 6.08194 7.08742 4.50557 7.08742V7.60638C6.36855 7.60638 7.8788 6.09613 7.8788 4.23315H7.35984ZM4.50557 7.08742C2.9292 7.08742 1.65129 5.80952 1.65129 4.23315H1.13234C1.13234 6.09613 2.64258 7.60638 4.50557 7.60638V7.08742ZM1.65129 4.23315C1.65129 2.65678 2.9292 1.37888 4.50557 1.37888V0.859921C2.64258 0.859921 1.13234 2.37017 1.13234 4.23315H1.65129ZM4.50557 1.37888C6.08194 1.37888 7.35984 2.65678 7.35984 4.23315H7.8788C7.8788 2.37017 6.36855 0.859921 4.50557 0.859921V1.37888ZM4.50557 1.1194C4.34988 1.32698 4.34979 1.32691 4.3497 1.32685C4.34968 1.32683 4.3496 1.32677 4.34955 1.32674C4.34946 1.32667 4.3494 1.32662 4.34935 1.32659C4.34926 1.32651 4.34924 1.32651 4.34931 1.32656C4.34945 1.32666 4.34991 1.32702 4.35069 1.32762C4.35224 1.32882 4.35504 1.33101 4.35901 1.33418C4.36695 1.34054 4.37956 1.35083 4.39616 1.36506C4.42939 1.39354 4.47853 1.4377 4.53832 1.49749C4.65803 1.6172 4.81959 1.79874 4.98161 2.04177C5.30498 2.52683 5.62998 3.25603 5.62998 4.23315H6.14893C6.14893 3.13444 5.78198 2.30676 5.41341 1.7539C5.22946 1.47798 5.04504 1.2703 4.90528 1.13053C4.83533 1.06058 4.77635 1.00743 4.7339 0.971041C4.71266 0.952839 4.69553 0.938808 4.6832 0.928944C4.67704 0.924011 4.67207 0.920118 4.66838 0.917264C4.66654 0.915838 4.66502 0.91467 4.66382 0.913762C4.66323 0.913308 4.66272 0.912919 4.66229 0.912595C4.66207 0.912433 4.66188 0.912287 4.66171 0.912157C4.66162 0.912092 4.66151 0.912007 4.66146 0.911975C4.66136 0.911894 4.66125 0.911817 4.50557 1.1194ZM5.62998 4.23315C5.62998 5.21027 5.30498 5.93947 4.98161 6.42453C4.81959 6.66756 4.65803 6.8491 4.53832 6.96881C4.47853 7.0286 4.42939 7.07276 4.39616 7.10124C4.37956 7.11547 4.36695 7.12577 4.35901 7.13212C4.35504 7.13529 4.35224 7.13748 4.35069 7.13868C4.34991 7.13928 4.34945 7.13964 4.34931 7.13974C4.34924 7.1398 4.34926 7.13979 4.34935 7.13972C4.3494 7.13968 4.34946 7.13963 4.34955 7.13956C4.3496 7.13953 4.34968 7.13947 4.3497 7.13945C4.34979 7.13939 4.34988 7.13932 4.50557 7.3469C4.66125 7.55448 4.66136 7.55441 4.66146 7.55433C4.66151 7.55429 4.66162 7.55421 4.66171 7.55414C4.66188 7.55401 4.66207 7.55387 4.66229 7.55371C4.66272 7.55338 4.66323 7.55299 4.66382 7.55254C4.66502 7.55163 4.66654 7.55046 4.66838 7.54904C4.67207 7.54618 4.67704 7.54229 4.6832 7.53736C4.69553 7.52749 4.71266 7.51346 4.7339 7.49526C4.77635 7.45887 4.83533 7.40572 4.90528 7.33577C5.04504 7.196 5.22946 6.98832 5.41341 6.7124C5.78198 6.15954 6.14893 5.33186 6.14893 4.23315H5.62998ZM4.50557 7.3469C4.66125 7.13932 4.66135 7.13939 4.66143 7.13945C4.66145 7.13947 4.66154 7.13953 4.66158 7.13956C4.66167 7.13963 4.66174 7.13968 4.66178 7.13972C4.66188 7.13979 4.66189 7.1398 4.66182 7.13974C4.66168 7.13964 4.66122 7.13928 4.66044 7.13868C4.65889 7.13748 4.65609 7.13529 4.65212 7.13212C4.64418 7.12577 4.63157 7.11547 4.61497 7.10124C4.58174 7.07276 4.5326 7.0286 4.47281 6.96881C4.3531 6.8491 4.19154 6.66756 4.02952 6.42453C3.70615 5.93947 3.38116 5.21027 3.38116 4.23315H2.8622C2.8622 5.33186 3.22915 6.15954 3.59772 6.7124C3.78167 6.98832 3.96609 7.196 4.10585 7.33577C4.1758 7.40572 4.23478 7.45887 4.27723 7.49526C4.29847 7.51346 4.3156 7.52749 4.32793 7.53736C4.33409 7.54229 4.33906 7.54618 4.34275 7.54904C4.34459 7.55046 4.34612 7.55163 4.34731 7.55254C4.3479 7.55299 4.34842 7.55338 4.34884 7.55371C4.34906 7.55387 4.34925 7.55401 4.34943 7.55414C4.34951 7.55421 4.34962 7.55429 4.34967 7.55433C4.34978 7.55441 4.34988 7.55448 4.50557 7.3469ZM3.38116 4.23315C3.38116 3.25603 3.70615 2.52683 4.02952 2.04177C4.19154 1.79874 4.3531 1.6172 4.47281 1.49749C4.5326 1.4377 4.58174 1.39354 4.61497 1.36506C4.63157 1.35083 4.64418 1.34054 4.65212 1.33418C4.65609 1.33101 4.65889 1.32882 4.66044 1.32762C4.66122 1.32702 4.66168 1.32666 4.66182 1.32656C4.66189 1.32651 4.66188 1.32651 4.66178 1.32659C4.66174 1.32662 4.66167 1.32667 4.66158 1.32674C4.66154 1.32677 4.66145 1.32683 4.66143 1.32685C4.66135 1.32691 4.66125 1.32698 4.50557 1.1194C4.34988 0.911817 4.34978 0.911894 4.34967 0.911975C4.34962 0.912007 4.34951 0.912092 4.34943 0.912157C4.34925 0.912287 4.34906 0.912433 4.34884 0.912595C4.34842 0.912919 4.3479 0.913308 4.34731 0.913762C4.34612 0.91467 4.34459 0.915838 4.34275 0.917264C4.33906 0.920118 4.33409 0.924011 4.32793 0.928944C4.3156 0.938808 4.29847 0.952839 4.27723 0.971041C4.23478 1.00743 4.1758 1.06058 4.10585 1.13053C3.96609 1.2703 3.78167 1.47798 3.59772 1.7539C3.22915 2.30676 2.8622 3.13444 2.8622 4.23315H3.38116ZM7.61932 3.97367H1.39182V4.49263H7.61932V3.97367Z" fill="#7E74F1"/>
</svg>
